<svg width="305" height="122" viewBox="0 0 305 122" fill="none" xmlns="http://www.w3.org/2000/svg">
<ellipse cx="152.5" cy="61.5" rx="149.5" ry="45.5" fill="#DA4533"/>
<path d="M47.8608 43.8V55H46.2928V45.192H39.7968V55H38.2128V43.8H47.8608ZM54.7294 55.096C53.8867 55.096 53.1294 54.9093 52.4574 54.536C51.7854 54.1627 51.2574 53.6507 50.8734 53C50.5 52.3387 50.3134 51.592 50.3134 50.76C50.3134 49.928 50.5 49.1867 50.8734 48.536C51.2574 47.8747 51.7854 47.3627 52.4574 47C53.1294 46.6267 53.8867 46.44 54.7294 46.44C55.572 46.44 56.324 46.6267 56.9854 47C57.6574 47.3627 58.18 47.8747 58.5534 48.536C58.9374 49.1867 59.1294 49.928 59.1294 50.76C59.1294 51.592 58.9374 52.3387 58.5534 53C58.18 53.6507 57.6574 54.1627 56.9854 54.536C56.324 54.9093 55.572 55.096 54.7294 55.096ZM54.7294 53.752C55.2734 53.752 55.7587 53.6293 56.1854 53.384C56.6227 53.128 56.964 52.776 57.2094 52.328C57.4547 51.8693 57.5774 51.3467 57.5774 50.76C57.5774 50.1733 57.4547 49.656 57.2094 49.208C56.964 48.7493 56.6227 48.3973 56.1854 48.152C55.7587 47.9067 55.2734 47.784 54.7294 47.784C54.1854 47.784 53.6947 47.9067 53.2574 48.152C52.8307 48.3973 52.4894 48.7493 52.2334 49.208C51.988 49.656 51.8654 50.1733 51.8654 50.76C51.8654 51.3467 51.988 51.8693 52.2334 52.328C52.4894 52.776 52.8307 53.128 53.2574 53.384C53.6947 53.6293 54.1854 53.752 54.7294 53.752ZM68.5649 46.52V55H67.0289V47.864H63.3809L63.2849 49.752C63.2315 50.8933 63.1302 51.848 62.9809 52.616C62.8315 53.3733 62.5862 53.9813 62.2449 54.44C61.9035 54.8987 61.4289 55.128 60.8209 55.128C60.5435 55.128 60.2289 55.08 59.8769 54.984L59.9729 53.688C60.1115 53.72 60.2395 53.736 60.3569 53.736C60.7835 53.736 61.1035 53.5493 61.3169 53.176C61.5302 52.8027 61.6689 52.36 61.7329 51.848C61.7969 51.336 61.8555 50.6053 61.9089 49.656L62.0529 46.52H68.5649ZM79.1029 46.52L74.9909 55.848C74.6282 56.712 74.2015 57.32 73.7109 57.672C73.2309 58.024 72.6495 58.2 71.9669 58.2C71.5509 58.2 71.1455 58.1307 70.7509 57.992C70.3669 57.864 70.0469 57.672 69.7909 57.416L70.4469 56.264C70.8842 56.68 71.3909 56.888 71.9669 56.888C72.3402 56.888 72.6495 56.7867 72.8949 56.584C73.1509 56.392 73.3802 56.056 73.5829 55.576L73.8549 54.984L70.1109 46.52H71.7109L74.6709 53.304L77.5989 46.52H79.1029ZM87.4435 46.52V55H85.9075V51.576C84.9902 52.0027 84.0782 52.216 83.1715 52.216C82.1155 52.216 81.2995 51.9707 80.7235 51.48C80.1475 50.9893 79.8595 50.2533 79.8595 49.272V46.52H81.3955V49.176C81.3955 49.7627 81.5768 50.2053 81.9395 50.504C82.3128 50.8027 82.8302 50.952 83.4915 50.952C84.2382 50.952 85.0435 50.7653 85.9075 50.392V46.52H87.4435ZM90.4255 46.52H91.9615V52.696L97.1615 46.52H98.5535V55H97.0175V48.824L91.8335 55H90.4255V46.52ZM107.855 47.864H104.751V55H103.215V47.864H100.111V46.52H107.855V47.864ZM113.346 49.4C114.423 49.4107 115.244 49.656 115.81 50.136C116.375 50.616 116.658 51.2933 116.658 52.168C116.658 53.0853 116.348 53.7947 115.73 54.296C115.122 54.7867 114.247 55.0267 113.106 55.016L109.426 55V46.52H110.962V49.384L113.346 49.4ZM112.978 53.848C113.671 53.8587 114.194 53.72 114.546 53.432C114.908 53.144 115.09 52.7173 115.09 52.152C115.09 51.5973 114.914 51.192 114.562 50.936C114.22 50.68 113.692 50.5467 112.978 50.536L110.962 50.504V53.832L112.978 53.848ZM122.926 46.52H124.462V52.696L129.661 46.52H131.054V55H129.517V48.824L124.334 55H122.926V46.52ZM134.035 46.52H135.571V50.12H140.403V46.52H141.939V55H140.403V51.448H135.571V55H134.035V46.52ZM153.55 53.656V56.968H152.11V55H145.022V56.968H143.566V53.656H144.014C144.558 53.624 144.931 53.24 145.134 52.504C145.336 51.768 145.475 50.728 145.549 49.384L145.678 46.52H152.253V53.656H153.55ZM146.958 49.496C146.915 50.5627 146.824 51.448 146.686 52.152C146.558 52.8453 146.318 53.3467 145.966 53.656H150.718V47.864H147.038L146.958 49.496ZM155.551 46.52H157.087V52.696L162.286 46.52H163.679V55H162.142V48.824L156.959 55H155.551V46.52ZM172.436 50.6C173.535 50.8773 174.084 51.5653 174.084 52.664C174.084 53.4107 173.801 53.9867 173.236 54.392C172.681 54.7973 171.849 55 170.74 55H166.66V46.52H170.596C171.599 46.52 172.383 46.712 172.948 47.096C173.513 47.4693 173.796 48.0027 173.796 48.696C173.796 49.144 173.673 49.5333 173.428 49.864C173.193 50.184 172.863 50.4293 172.436 50.6ZM168.164 50.168H170.468C171.055 50.168 171.497 50.0613 171.796 49.848C172.105 49.6347 172.26 49.3253 172.26 48.92C172.26 48.1093 171.663 47.704 170.468 47.704H168.164V50.168ZM170.628 53.816C171.268 53.816 171.748 53.7147 172.068 53.512C172.388 53.3093 172.548 52.9947 172.548 52.568C172.548 52.1307 172.399 51.8053 172.1 51.592C171.812 51.3787 171.353 51.272 170.724 51.272H168.164V53.816H170.628ZM176.488 46.52H178.024V52.696L183.224 46.52H184.616V55H183.08V48.824L177.896 55H176.488V46.52ZM196.221 53.656V56.968H194.781V55H187.693V56.968H186.237V53.656H186.685C187.229 53.624 187.603 53.24 187.805 52.504C188.008 51.768 188.147 50.728 188.221 49.384L188.349 46.52H194.925V53.656H196.221ZM189.629 49.496C189.587 50.5627 189.496 51.448 189.357 52.152C189.229 52.8453 188.989 53.3467 188.637 53.656H193.389V47.864H189.709L189.629 49.496ZM205.79 46.52L201.678 55.848C201.316 56.712 200.889 57.32 200.398 57.672C199.918 58.024 199.337 58.2 198.654 58.2C198.238 58.2 197.833 58.1307 197.438 57.992C197.054 57.864 196.734 57.672 196.478 57.416L197.134 56.264C197.572 56.68 198.078 56.888 198.654 56.888C199.028 56.888 199.337 56.7867 199.582 56.584C199.838 56.392 200.068 56.056 200.27 55.576L200.542 54.984L196.798 46.52H198.398L201.358 53.304L204.286 46.52H205.79ZM210.121 46.44C211.295 46.44 212.191 46.728 212.809 47.304C213.439 47.88 213.753 48.7387 213.753 49.88V55H212.297V53.88C212.041 54.2747 211.673 54.5787 211.193 54.792C210.724 54.9947 210.164 55.096 209.513 55.096C208.564 55.096 207.801 54.8667 207.225 54.408C206.66 53.9493 206.377 53.3467 206.377 52.6C206.377 51.8533 206.649 51.256 207.193 50.808C207.737 50.3493 208.601 50.12 209.785 50.12H212.217V49.816C212.217 49.1547 212.025 48.648 211.641 48.296C211.257 47.944 210.692 47.768 209.945 47.768C209.444 47.768 208.953 47.8533 208.473 48.024C207.993 48.184 207.588 48.4027 207.257 48.68L206.617 47.528C207.055 47.176 207.577 46.9093 208.185 46.728C208.793 46.536 209.439 46.44 210.121 46.44ZM209.769 53.912C210.356 53.912 210.863 53.784 211.289 53.528C211.716 53.2613 212.025 52.888 212.217 52.408V51.224H209.849C208.548 51.224 207.897 51.6613 207.897 52.536C207.897 52.9627 208.063 53.2987 208.393 53.544C208.724 53.7893 209.183 53.912 209.769 53.912ZM223.799 46.52V55H222.263V47.864H218.615L218.519 49.752C218.466 50.8933 218.365 51.848 218.215 52.616C218.066 53.3733 217.821 53.9813 217.479 54.44C217.138 54.8987 216.663 55.128 216.055 55.128C215.778 55.128 215.463 55.08 215.111 54.984L215.207 53.688C215.346 53.72 215.474 53.736 215.591 53.736C216.018 53.736 216.338 53.5493 216.551 53.176C216.765 52.8027 216.903 52.36 216.967 51.848C217.031 51.336 217.09 50.6053 217.143 49.656L217.287 46.52H223.799ZM230.689 49.4C231.767 49.4107 232.588 49.656 233.153 50.136C233.719 50.616 234.001 51.2933 234.001 52.168C234.001 53.0853 233.692 53.7947 233.073 54.296C232.465 54.7867 231.591 55.0267 230.449 55.016L226.769 55V46.52H228.305V49.384L230.689 49.4ZM230.321 53.848C231.015 53.8587 231.537 53.72 231.889 53.432C232.252 53.144 232.433 52.7173 232.433 52.152C232.433 51.5973 232.257 51.192 231.905 50.936C231.564 50.68 231.036 50.5467 230.321 50.536L228.305 50.504V53.832L230.321 53.848ZM235.972 46.52H237.508V50.12H242.34V46.52H243.876V55H242.34V51.448H237.508V55H235.972V46.52ZM254.431 46.52L250.319 55.848C249.956 56.712 249.53 57.32 249.039 57.672C248.559 58.024 247.978 58.2 247.295 58.2C246.879 58.2 246.474 58.1307 246.079 57.992C245.695 57.864 245.375 57.672 245.119 57.416L245.775 56.264C246.212 56.68 246.719 56.888 247.295 56.888C247.668 56.888 247.978 56.7867 248.223 56.584C248.479 56.392 248.708 56.056 248.911 55.576L249.183 54.984L245.439 46.52H247.039L249.999 53.304L252.927 46.52H254.431ZM263.508 46.44C264.329 46.44 265.065 46.6267 265.716 47C266.366 47.3627 266.878 47.8747 267.252 48.536C267.625 49.1867 267.812 49.928 267.812 50.76C267.812 51.592 267.625 52.3387 267.252 53C266.878 53.6507 266.366 54.1627 265.716 54.536C265.065 54.9093 264.329 55.096 263.508 55.096C262.761 55.096 262.084 54.9413 261.476 54.632C260.868 54.3227 260.366 53.8907 259.972 53.336C259.588 52.7707 259.348 52.1307 259.252 51.416H257.54V55H256.004V46.52H257.54V49.992H259.268C259.374 49.288 259.62 48.6693 260.004 48.136C260.398 47.592 260.894 47.176 261.492 46.888C262.1 46.5893 262.772 46.44 263.508 46.44ZM263.508 53.752C264.03 53.752 264.5 53.6293 264.916 53.384C265.342 53.1387 265.678 52.792 265.924 52.344C266.169 51.8853 266.292 51.3573 266.292 50.76C266.292 50.1733 266.169 49.656 265.924 49.208C265.678 48.7493 265.342 48.3973 264.916 48.152C264.5 47.9067 264.03 47.784 263.508 47.784C262.985 47.784 262.51 47.9067 262.084 48.152C261.657 48.3973 261.321 48.7493 261.076 49.208C260.841 49.656 260.724 50.1733 260.724 50.76C260.724 51.3573 260.841 51.8853 261.076 52.344C261.321 52.792 261.657 53.1387 262.084 53.384C262.51 53.6293 262.985 53.752 263.508 53.752ZM97.159 77.416H95.399V81H93.863V72.52H95.399V76.104H97.191L99.943 72.52H101.591L98.375 76.6L101.815 81H100.007L97.159 77.416ZM106.776 81.096C105.934 81.096 105.176 80.9093 104.504 80.536C103.832 80.1627 103.304 79.6507 102.92 79C102.547 78.3387 102.36 77.592 102.36 76.76C102.36 75.928 102.547 75.1867 102.92 74.536C103.304 73.8747 103.832 73.3627 104.504 73C105.176 72.6267 105.934 72.44 106.776 72.44C107.619 72.44 108.371 72.6267 109.032 73C109.704 73.3627 110.227 73.8747 110.6 74.536C110.984 75.1867 111.176 75.928 111.176 76.76C111.176 77.592 110.984 78.3387 110.6 79C110.227 79.6507 109.704 80.1627 109.032 80.536C108.371 80.9093 107.619 81.096 106.776 81.096ZM106.776 79.752C107.32 79.752 107.806 79.6293 108.232 79.384C108.67 79.128 109.011 78.776 109.256 78.328C109.502 77.8693 109.624 77.3467 109.624 76.76C109.624 76.1733 109.502 75.656 109.256 75.208C109.011 74.7493 108.67 74.3973 108.232 74.152C107.806 73.9067 107.32 73.784 106.776 73.784C106.232 73.784 105.742 73.9067 105.304 74.152C104.878 74.3973 104.536 74.7493 104.28 75.208C104.035 75.656 103.912 76.1733 103.912 76.76C103.912 77.3467 104.035 77.8693 104.28 78.328C104.536 78.776 104.878 79.128 105.304 79.384C105.742 79.6293 106.232 79.752 106.776 79.752ZM113.394 72.52H114.93V76.12H119.762V72.52H121.298V81H119.762V77.448H114.93V81H113.394V72.52ZM127.981 81.096C127.117 81.096 126.344 80.9093 125.661 80.536C124.989 80.1627 124.461 79.6507 124.077 79C123.693 78.3387 123.501 77.592 123.501 76.76C123.501 75.928 123.693 75.1867 124.077 74.536C124.461 73.8747 124.989 73.3627 125.661 73C126.344 72.6267 127.117 72.44 127.981 72.44C128.749 72.44 129.432 72.5947 130.029 72.904C130.637 73.2133 131.106 73.6613 131.437 74.248L130.269 75C130.002 74.5947 129.672 74.2907 129.277 74.088C128.882 73.8853 128.445 73.784 127.965 73.784C127.41 73.784 126.909 73.9067 126.461 74.152C126.024 74.3973 125.677 74.7493 125.421 75.208C125.176 75.656 125.053 76.1733 125.053 76.76C125.053 77.3573 125.176 77.8853 125.421 78.344C125.677 78.792 126.024 79.1387 126.461 79.384C126.909 79.6293 127.41 79.752 127.965 79.752C128.445 79.752 128.882 79.6507 129.277 79.448C129.672 79.2453 130.002 78.9413 130.269 78.536L131.437 79.272C131.106 79.8587 130.637 80.312 130.029 80.632C129.432 80.9413 128.749 81.096 127.981 81.096ZM140.884 72.52L136.772 81.848C136.409 82.712 135.983 83.32 135.492 83.672C135.012 84.024 134.431 84.2 133.748 84.2C133.332 84.2 132.927 84.1307 132.532 83.992C132.148 83.864 131.828 83.672 131.572 83.416L132.228 82.264C132.665 82.68 133.172 82.888 133.748 82.888C134.121 82.888 134.431 82.7867 134.676 82.584C134.932 82.392 135.161 82.056 135.364 81.576L135.636 80.984L131.892 72.52H133.492L136.452 79.304L139.38 72.52H140.884ZM149.284 72.52V81H147.748V73.864H144.1L144.004 75.752C143.95 76.8933 143.849 77.848 143.7 78.616C143.55 79.3733 143.305 79.9813 142.964 80.44C142.622 80.8987 142.148 81.128 141.54 81.128C141.262 81.128 140.948 81.08 140.596 80.984L140.692 79.688C140.83 79.72 140.958 79.736 141.076 79.736C141.502 79.736 141.822 79.5493 142.036 79.176C142.249 78.8027 142.388 78.36 142.452 77.848C142.516 77.336 142.574 76.6053 142.628 75.656L142.772 72.52H149.284ZM156.174 75.4C157.251 75.4107 158.072 75.656 158.638 76.136C159.203 76.616 159.486 77.2933 159.486 78.168C159.486 79.0853 159.176 79.7947 158.558 80.296C157.95 80.7867 157.075 81.0267 155.934 81.016L152.254 81V72.52H153.79V75.384L156.174 75.4ZM155.806 79.848C156.499 79.8587 157.022 79.72 157.374 79.432C157.736 79.144 157.918 78.7173 157.918 78.152C157.918 77.5973 157.742 77.192 157.39 76.936C157.048 76.68 156.52 76.5467 155.806 76.536L153.79 76.504V79.832L155.806 79.848ZM166.949 73.864H163.845V81H162.309V73.864H159.205V72.52H166.949V73.864ZM171.543 72.44C172.717 72.44 173.613 72.728 174.231 73.304C174.861 73.88 175.175 74.7387 175.175 75.88V81H173.719V79.88C173.463 80.2747 173.095 80.5787 172.615 80.792C172.146 80.9947 171.586 81.096 170.935 81.096C169.986 81.096 169.223 80.8667 168.647 80.408C168.082 79.9493 167.799 79.3467 167.799 78.6C167.799 77.8533 168.071 77.256 168.615 76.808C169.159 76.3493 170.023 76.12 171.207 76.12H173.639V75.816C173.639 75.1547 173.447 74.648 173.063 74.296C172.679 73.944 172.114 73.768 171.367 73.768C170.866 73.768 170.375 73.8533 169.895 74.024C169.415 74.184 169.01 74.4027 168.679 74.68L168.039 73.528C168.477 73.176 168.999 72.9093 169.607 72.728C170.215 72.536 170.861 72.44 171.543 72.44ZM171.191 79.912C171.778 79.912 172.285 79.784 172.711 79.528C173.138 79.2613 173.447 78.888 173.639 78.408V77.224H171.271C169.97 77.224 169.319 77.6613 169.319 78.536C169.319 78.9627 169.485 79.2987 169.815 79.544C170.146 79.7893 170.605 79.912 171.191 79.912ZM186.997 79.656V83.032H185.541V81H177.941V72.52H179.477V79.656H184.117V72.52H185.653V79.656H186.997ZM188.988 72.52H190.524V78.696L195.724 72.52H197.116V81H195.58V74.824L190.396 81H188.988V72.52ZM207.601 72.44C208.423 72.44 209.159 72.6267 209.809 73C210.46 73.3627 210.972 73.8747 211.345 74.536C211.719 75.1867 211.905 75.928 211.905 76.76C211.905 77.592 211.719 78.3387 211.345 79C210.972 79.6507 210.46 80.1627 209.809 80.536C209.159 80.9093 208.423 81.096 207.601 81.096C206.855 81.096 206.177 80.9413 205.569 80.632C204.961 80.3227 204.46 79.8907 204.065 79.336C203.681 78.7707 203.441 78.1307 203.345 77.416H201.633V81H200.097V72.52H201.633V75.992H203.361C203.468 75.288 203.713 74.6693 204.097 74.136C204.492 73.592 204.988 73.176 205.585 72.888C206.193 72.5893 206.865 72.44 207.601 72.44ZM207.601 79.752C208.124 79.752 208.593 79.6293 209.009 79.384C209.436 79.1387 209.772 78.792 210.017 78.344C210.263 77.8853 210.385 77.3573 210.385 76.76C210.385 76.1733 210.263 75.656 210.017 75.208C209.772 74.7493 209.436 74.3973 209.009 74.152C208.593 73.9067 208.124 73.784 207.601 73.784C207.079 73.784 206.604 73.9067 206.177 74.152C205.751 74.3973 205.415 74.7493 205.169 75.208C204.935 75.656 204.817 76.1733 204.817 76.76C204.817 77.3573 204.935 77.8853 205.169 78.344C205.415 78.792 205.751 79.1387 206.177 79.384C206.604 79.6293 207.079 79.752 207.601 79.752Z" fill="white"/>
<path d="M299.636 45.7322C300.276 51.7429 296.918 57.9896 290.069 64.159C283.231 70.3191 272.993 76.3236 260.094 81.8345C234.301 92.8539 197.977 101.854 157.237 106.209C116.497 110.564 79.0954 109.443 51.5639 104.124C37.795 101.463 26.5238 97.7576 18.5425 93.1815C10.549 88.5985 5.95238 83.202 5.31264 77.1913C4.67291 71.1806 8.03035 64.9339 14.8794 58.7645C21.718 52.6043 31.9558 46.5999 44.855 41.089C70.6474 30.0696 106.972 21.069 147.712 16.7145C188.451 12.36 225.853 13.4802 253.385 18.7999C267.154 21.4604 278.425 25.1659 286.406 29.7419C294.4 34.3249 298.996 39.7214 299.636 45.7322Z" stroke="white"/>
</svg>
