<svg width="154" height="41" viewBox="0 0 154 41" fill="none" xmlns="http://www.w3.org/2000/svg">
<path d="M56.1035 23.608V27.448H54.6155V25H45.3995L45.3835 27.448H43.8955L43.9115 23.608H44.4555C45.1595 23.5653 45.6555 23.0107 45.9435 21.944C46.2315 20.8667 46.4075 19.352 46.4715 17.4L46.5835 13.8H54.4555V23.608H56.1035ZM47.8795 17.544C47.8262 19.1227 47.6982 20.4293 47.4955 21.464C47.3035 22.4987 46.9888 23.2133 46.5515 23.608H52.8715V15.192H47.9595L47.8795 17.544ZM61.0589 16.44C62.2322 16.44 63.1282 16.728 63.7469 17.304C64.3762 17.88 64.6909 18.7387 64.6909 19.88V25H63.2349V23.88C62.9789 24.2747 62.6109 24.5787 62.1309 24.792C61.6615 24.9947 61.1015 25.096 60.4509 25.096C59.5015 25.096 58.7389 24.8667 58.1629 24.408C57.5975 23.9493 57.3149 23.3467 57.3149 22.6C57.3149 21.8533 57.5869 21.256 58.1309 20.808C58.6749 20.3493 59.5389 20.12 60.7229 20.12H63.1549V19.816C63.1549 19.1547 62.9629 18.648 62.5789 18.296C62.1949 17.944 61.6295 17.768 60.8829 17.768C60.3815 17.768 59.8909 17.8533 59.4109 18.024C58.9309 18.184 58.5255 18.4027 58.1949 18.68L57.5549 17.528C57.9922 17.176 58.5149 16.9093 59.1229 16.728C59.7309 16.536 60.3762 16.44 61.0589 16.44ZM60.7069 23.912C61.2935 23.912 61.8002 23.784 62.2269 23.528C62.6535 23.2613 62.9629 22.888 63.1549 22.408V21.224H60.7869C59.4855 21.224 58.8349 21.6613 58.8349 22.536C58.8349 22.9627 59.0002 23.2987 59.3309 23.544C59.6615 23.7893 60.1202 23.912 60.7069 23.912ZM74.7368 16.52V25H73.2008V17.864H69.5528L69.4568 19.752C69.4034 20.8933 69.3021 21.848 69.1528 22.616C69.0034 23.3733 68.7581 23.9813 68.4168 24.44C68.0754 24.8987 67.6008 25.128 66.9928 25.128C66.7154 25.128 66.4008 25.08 66.0488 24.984L66.1448 23.688C66.2834 23.72 66.4114 23.736 66.5288 23.736C66.9554 23.736 67.2754 23.5493 67.4888 23.176C67.7021 22.8027 67.8408 22.36 67.9048 21.848C67.9688 21.336 68.0274 20.6053 68.0807 19.656L68.2248 16.52H74.7368ZM85.3708 20.808C85.3708 20.9253 85.3601 21.08 85.3388 21.272H78.4588C78.5548 22.0187 78.8801 22.6213 79.4348 23.08C80.0001 23.528 80.6988 23.752 81.5308 23.752C82.5441 23.752 83.3601 23.4107 83.9788 22.728L84.8268 23.72C84.4428 24.168 83.9628 24.5093 83.3868 24.744C82.8214 24.9787 82.1868 25.096 81.4828 25.096C80.5868 25.096 79.7921 24.9147 79.0988 24.552C78.4054 24.1787 77.8668 23.6613 77.4828 23C77.1094 22.3387 76.9228 21.592 76.9228 20.76C76.9228 19.9387 77.1041 19.1973 77.4668 18.536C77.8401 17.8747 78.3468 17.3627 78.9868 17C79.6374 16.6267 80.3681 16.44 81.1788 16.44C81.9894 16.44 82.7094 16.6267 83.3388 17C83.9788 17.3627 84.4748 17.8747 84.8268 18.536C85.1894 19.1973 85.3708 19.9547 85.3708 20.808ZM81.1788 17.736C80.4428 17.736 79.8241 17.96 79.3228 18.408C78.8321 18.856 78.5441 19.4427 78.4588 20.168H83.8988C83.8134 19.4533 83.5201 18.872 83.0188 18.424C82.5281 17.9653 81.9148 17.736 81.1788 17.736ZM95.4176 20.808C95.4176 20.9253 95.407 21.08 95.3856 21.272H88.5056C88.6016 22.0187 88.927 22.6213 89.4816 23.08C90.047 23.528 90.7456 23.752 91.5776 23.752C92.591 23.752 93.407 23.4107 94.0256 22.728L94.8736 23.72C94.4896 24.168 94.0096 24.5093 93.4336 24.744C92.8683 24.9787 92.2336 25.096 91.5296 25.096C90.6336 25.096 89.839 24.9147 89.1456 24.552C88.4523 24.1787 87.9136 23.6613 87.5296 23C87.1563 22.3387 86.9696 21.592 86.9696 20.76C86.9696 19.9387 87.151 19.1973 87.5136 18.536C87.887 17.8747 88.3936 17.3627 89.0336 17C89.6843 16.6267 90.415 16.44 91.2256 16.44C92.0363 16.44 92.7563 16.6267 93.3856 17C94.0256 17.3627 94.5216 17.8747 94.8736 18.536C95.2363 19.1973 95.4176 19.9547 95.4176 20.808ZM91.2256 17.736C90.4896 17.736 89.871 17.96 89.3696 18.408C88.879 18.856 88.591 19.4427 88.5056 20.168H93.9456C93.8603 19.4533 93.567 18.872 93.0656 18.424C92.575 17.9653 91.9616 17.736 91.2256 17.736Z" fill="#DA4533"/>
<path d="M150.354 20.3536C150.549 20.1583 150.549 19.8417 150.354 19.6464L147.172 16.4645C146.976 16.2692 146.66 16.2692 146.464 16.4645C146.269 16.6597 146.269 16.9763 146.464 17.1716L149.293 20L146.464 22.8284C146.269 23.0237 146.269 23.3403 146.464 23.5355C146.66 23.7308 146.976 23.7308 147.172 23.5355L150.354 20.3536ZM120 20.5L150 20.5L150 19.5L120 19.5L120 20.5Z" fill="#DA4533"/>
<path d="M137.5 20.5C137.5 23.0909 135.769 25.6569 132.404 28.0734C129.05 30.4813 124.166 32.6704 118.084 34.5173C105.928 38.2091 89.1045 40.5 70.5 40.5C51.8955 40.5 35.0717 38.2091 22.9156 34.5173C16.8344 32.6704 11.9496 30.4813 8.59611 28.0734C5.23068 25.6569 3.5 23.0909 3.5 20.5C3.5 17.9091 5.23068 15.3431 8.59611 12.9266C11.9496 10.5187 16.8344 8.32962 22.9156 6.48273C35.0717 2.79087 51.8955 0.5 70.5 0.5C89.1045 0.5 105.928 2.79087 118.084 6.48273C124.166 8.32962 129.05 10.5187 132.404 12.9266C135.769 15.3431 137.5 17.9091 137.5 20.5Z" stroke="#DA4533"/>
</svg>
