<svg width="154" height="41" viewBox="0 0 154 41" fill="none" xmlns="http://www.w3.org/2000/svg">
<path d="M34.8216 19.192C35.5789 19.3733 36.1496 19.6987 36.5336 20.168C36.9282 20.6267 37.1256 21.2187 37.1256 21.944C37.1256 22.9147 36.7682 23.6667 36.0536 24.2C35.3496 24.7333 34.3202 25 32.9656 25H27.8456V13.8H32.6616C33.8882 13.8 34.8429 14.0507 35.5256 14.552C36.2189 15.0427 36.5656 15.752 36.5656 16.68C36.5656 17.288 36.4109 17.8053 36.1016 18.232C35.8029 18.6587 35.3762 18.9787 34.8216 19.192ZM29.4296 18.728H32.5496C33.3282 18.728 33.9202 18.5733 34.3256 18.264C34.7416 17.9547 34.9496 17.5013 34.9496 16.904C34.9496 16.3067 34.7416 15.8533 34.3256 15.544C33.9096 15.224 33.3176 15.064 32.5496 15.064H29.4296V18.728ZM32.9336 23.736C34.6509 23.736 35.5096 23.096 35.5096 21.816C35.5096 21.176 35.2909 20.7067 34.8536 20.408C34.4269 20.0987 33.7869 19.944 32.9336 19.944H29.4296V23.736H32.9336ZM43.2387 25.096C42.3747 25.096 41.6014 24.9093 40.9187 24.536C40.2467 24.1627 39.7187 23.6507 39.3347 23C38.9507 22.3387 38.7587 21.592 38.7587 20.76C38.7587 19.928 38.9507 19.1867 39.3347 18.536C39.7187 17.8747 40.2467 17.3627 40.9187 17C41.6014 16.6267 42.3747 16.44 43.2387 16.44C44.0067 16.44 44.6894 16.5947 45.2867 16.904C45.8947 17.2133 46.364 17.6613 46.6947 18.248L45.5267 19C45.26 18.5947 44.9294 18.2907 44.5347 18.088C44.14 17.8853 43.7027 17.784 43.2227 17.784C42.668 17.784 42.1667 17.9067 41.7187 18.152C41.2814 18.3973 40.9347 18.7493 40.6787 19.208C40.4334 19.656 40.3107 20.1733 40.3107 20.76C40.3107 21.3573 40.4334 21.8853 40.6787 22.344C40.9347 22.792 41.2814 23.1387 41.7187 23.384C42.1667 23.6293 42.668 23.752 43.2227 23.752C43.7027 23.752 44.14 23.6507 44.5347 23.448C44.9294 23.2453 45.26 22.9413 45.5267 22.536L46.6947 23.272C46.364 23.8587 45.8947 24.312 45.2867 24.632C44.6894 24.9413 44.0067 25.096 43.2387 25.096ZM56.2223 20.808C56.2223 20.9253 56.2116 21.08 56.1903 21.272H49.3103C49.4063 22.0187 49.7316 22.6213 50.2863 23.08C50.8516 23.528 51.5503 23.752 52.3823 23.752C53.3956 23.752 54.2116 23.4107 54.8303 22.728L55.6783 23.72C55.2943 24.168 54.8143 24.5093 54.2383 24.744C53.673 24.9787 53.0383 25.096 52.3343 25.096C51.4383 25.096 50.6436 24.9147 49.9503 24.552C49.257 24.1787 48.7183 23.6613 48.3343 23C47.961 22.3387 47.7743 21.592 47.7743 20.76C47.7743 19.9387 47.9556 19.1973 48.3183 18.536C48.6916 17.8747 49.1983 17.3627 49.8383 17C50.489 16.6267 51.2196 16.44 52.0303 16.44C52.841 16.44 53.561 16.6267 54.1903 17C54.8303 17.3627 55.3263 17.8747 55.6783 18.536C56.041 19.1973 56.2223 19.9547 56.2223 20.808ZM52.0303 17.736C51.2943 17.736 50.6756 17.96 50.1743 18.408C49.6836 18.856 49.3956 19.4427 49.3103 20.168H54.7503C54.665 19.4533 54.3716 18.872 53.8703 18.424C53.3796 17.9653 52.7663 17.736 52.0303 17.736ZM66.1981 21.416H64.4381V25H62.9021V16.52H64.4381V20.104H66.2301L68.9821 16.52H70.6301L67.4141 20.6L70.8541 25H69.0461L66.1981 21.416ZM79.8473 20.808C79.8473 20.9253 79.8366 21.08 79.8153 21.272H72.9353C73.0313 22.0187 73.3566 22.6213 73.9113 23.08C74.4766 23.528 75.1753 23.752 76.0073 23.752C77.0206 23.752 77.8366 23.4107 78.4553 22.728L79.3033 23.72C78.9193 24.168 78.4393 24.5093 77.8633 24.744C77.298 24.9787 76.6633 25.096 75.9593 25.096C75.0633 25.096 74.2686 24.9147 73.5753 24.552C72.882 24.1787 72.3433 23.6613 71.9593 23C71.586 22.3387 71.3993 21.592 71.3993 20.76C71.3993 19.9387 71.5806 19.1973 71.9433 18.536C72.3166 17.8747 72.8233 17.3627 73.4633 17C74.114 16.6267 74.8446 16.44 75.6553 16.44C76.466 16.44 77.186 16.6267 77.8153 17C78.4553 17.3627 78.9513 17.8747 79.3033 18.536C79.666 19.1973 79.8473 19.9547 79.8473 20.808ZM75.6553 17.736C74.9193 17.736 74.3006 17.96 73.7993 18.408C73.3086 18.856 73.0206 19.4427 72.9353 20.168H78.3753C78.29 19.4533 77.9966 18.872 77.4953 18.424C77.0046 17.9653 76.3913 17.736 75.6553 17.736ZM82.2302 16.52H83.7662V22.696L88.9662 16.52H90.3582V25H88.8222V18.824L83.6382 25H82.2302V16.52ZM86.1982 15.416C85.4089 15.416 84.7955 15.2293 84.3582 14.856C83.9209 14.472 83.6969 13.9227 83.6862 13.208H84.7262C84.7369 13.6027 84.8702 13.9227 85.1262 14.168C85.3929 14.4027 85.7449 14.52 86.1822 14.52C86.6195 14.52 86.9715 14.4027 87.2382 14.168C87.5049 13.9227 87.6435 13.6027 87.6542 13.208H88.7262C88.7155 13.9227 88.4862 14.472 88.0382 14.856C87.5902 15.2293 86.9769 15.416 86.1982 15.416ZM97.0356 25.096C96.1716 25.096 95.3982 24.9093 94.7156 24.536C94.0436 24.1627 93.5156 23.6507 93.1316 23C92.7476 22.3387 92.5556 21.592 92.5556 20.76C92.5556 19.928 92.7476 19.1867 93.1316 18.536C93.5156 17.8747 94.0436 17.3627 94.7156 17C95.3982 16.6267 96.1716 16.44 97.0356 16.44C97.8036 16.44 98.4862 16.5947 99.0836 16.904C99.6916 17.2133 100.161 17.6613 100.492 18.248L99.3236 19C99.0569 18.5947 98.7262 18.2907 98.3316 18.088C97.9369 17.8853 97.4996 17.784 97.0196 17.784C96.4649 17.784 95.9636 17.9067 95.5156 18.152C95.0782 18.3973 94.7316 18.7493 94.4756 19.208C94.2302 19.656 94.1076 20.1733 94.1076 20.76C94.1076 21.3573 94.2302 21.8853 94.4756 22.344C94.7316 22.792 95.0782 23.1387 95.5156 23.384C95.9636 23.6293 96.4649 23.752 97.0196 23.752C97.4996 23.752 97.9369 23.6507 98.3316 23.448C98.7262 23.2453 99.0569 22.9413 99.3236 22.536L100.492 23.272C100.161 23.8587 99.6916 24.312 99.0836 24.632C98.4862 24.9413 97.8036 25.096 97.0356 25.096ZM106.304 19.4C107.371 19.4107 108.187 19.656 108.752 20.136C109.318 20.616 109.6 21.2933 109.6 22.168C109.6 23.0853 109.291 23.7947 108.672 24.296C108.064 24.7867 107.19 25.0267 106.048 25.016L102.48 25V16.52H104.016V19.384L106.304 19.4ZM110.864 16.52H112.4V25H110.864V16.52ZM105.936 23.848C106.63 23.8587 107.152 23.72 107.504 23.432C107.867 23.144 108.048 22.7173 108.048 22.152C108.048 21.5973 107.872 21.192 107.52 20.936C107.168 20.68 106.64 20.5467 105.936 20.536L104.016 20.504V23.832L105.936 23.848Z" fill="#DA4533"/>
<path d="M150.354 20.3536C150.549 20.1583 150.549 19.8417 150.354 19.6464L147.172 16.4645C146.976 16.2692 146.66 16.2692 146.464 16.4645C146.269 16.6597 146.269 16.9763 146.464 17.1716L149.293 20L146.464 22.8284C146.269 23.0237 146.269 23.3403 146.464 23.5355C146.66 23.7308 146.976 23.7308 147.172 23.5355L150.354 20.3536ZM120 20.5L150 20.5L150 19.5L120 19.5L120 20.5Z" fill="#DA4533"/>
<path d="M137.5 20.5C137.5 23.0909 135.769 25.6569 132.404 28.0734C129.05 30.4813 124.166 32.6704 118.084 34.5173C105.928 38.2091 89.1045 40.5 70.5 40.5C51.8955 40.5 35.0717 38.2091 22.9156 34.5173C16.8344 32.6704 11.9496 30.4813 8.59611 28.0734C5.23068 25.6569 3.5 23.0909 3.5 20.5C3.5 17.9091 5.23068 15.3431 8.59611 12.9266C11.9496 10.5187 16.8344 8.32962 22.9156 6.48273C35.0717 2.79087 51.8955 0.5 70.5 0.5C89.1045 0.5 105.928 2.79087 118.084 6.48273C124.166 8.32962 129.05 10.5187 132.404 12.9266C135.769 15.3431 137.5 17.9091 137.5 20.5Z" stroke="#DA4533"/>
</svg>
