<svg width="165" height="41" viewBox="0 0 165 41" fill="none" xmlns="http://www.w3.org/2000/svg">
<path d="M66.7979 13.8V25H65.1979V20.008H58.7659V25H57.1659V13.8H58.7659V18.616H65.1979V13.8H66.7979ZM73.0589 16.44C74.2322 16.44 75.1282 16.728 75.7469 17.304C76.3762 17.88 76.6909 18.7387 76.6909 19.88V25H75.2349V23.88C74.9789 24.2747 74.6109 24.5787 74.1309 24.792C73.6615 24.9947 73.1015 25.096 72.4509 25.096C71.5015 25.096 70.7389 24.8667 70.1629 24.408C69.5975 23.9493 69.3149 23.3467 69.3149 22.6C69.3149 21.8533 69.5869 21.256 70.1309 20.808C70.6749 20.3493 71.5389 20.12 72.7229 20.12H75.1549V19.816C75.1549 19.1547 74.9629 18.648 74.5789 18.296C74.1949 17.944 73.6295 17.768 72.8829 17.768C72.3815 17.768 71.8909 17.8533 71.4109 18.024C70.9309 18.184 70.5255 18.4027 70.1949 18.68L69.5549 17.528C69.9922 17.176 70.5149 16.9093 71.1229 16.728C71.7309 16.536 72.3762 16.44 73.0589 16.44ZM72.7069 23.912C73.2935 23.912 73.8002 23.784 74.2269 23.528C74.6535 23.2613 74.9629 22.888 75.1549 22.408V21.224H72.7869C71.4855 21.224 70.8349 21.6613 70.8349 22.536C70.8349 22.9627 71.0002 23.2987 71.3309 23.544C71.6615 23.7893 72.1202 23.912 72.7069 23.912ZM83.9081 20.584C84.4735 20.7333 84.9108 20.9733 85.2201 21.304C85.5295 21.6347 85.6841 22.0453 85.6841 22.536C85.6841 23.0373 85.5135 23.4853 85.1721 23.88C84.8308 24.264 84.3561 24.568 83.7481 24.792C83.1508 25.0053 82.4788 25.112 81.7321 25.112C81.1028 25.112 80.4841 25.032 79.8761 24.872C79.2788 24.7013 78.7455 24.4613 78.2761 24.152L78.7401 22.984C79.1455 23.24 79.6095 23.4427 80.1321 23.592C80.6548 23.7307 81.1828 23.8 81.7161 23.8C82.4415 23.8 83.0175 23.6773 83.4441 23.432C83.8815 23.176 84.1001 22.8347 84.1001 22.408C84.1001 22.0133 83.9241 21.7093 83.5721 21.496C83.2308 21.2827 82.7455 21.176 82.1161 21.176H80.5641V20.072H82.0041C82.5801 20.072 83.0335 19.9707 83.3641 19.768C83.6948 19.5653 83.8601 19.288 83.8601 18.936C83.8601 18.552 83.6628 18.2533 83.2681 18.04C82.8841 17.8267 82.3615 17.72 81.7001 17.72C80.8575 17.72 79.9668 17.9387 79.0281 18.376L78.6121 17.192C79.6468 16.6693 80.7295 16.408 81.8601 16.408C82.5428 16.408 83.1561 16.504 83.7001 16.696C84.2441 16.888 84.6708 17.16 84.9801 17.512C85.2895 17.864 85.4441 18.264 85.4441 18.712C85.4441 19.128 85.3055 19.5013 85.0281 19.832C84.7508 20.1627 84.3775 20.4133 83.9081 20.584ZM91.0433 16.44C92.2166 16.44 93.1126 16.728 93.7313 17.304C94.3606 17.88 94.6753 18.7387 94.6753 19.88V25H93.2193V23.88C92.9633 24.2747 92.5953 24.5787 92.1153 24.792C91.6459 24.9947 91.0859 25.096 90.4353 25.096C89.4859 25.096 88.7233 24.8667 88.1473 24.408C87.5819 23.9493 87.2993 23.3467 87.2993 22.6C87.2993 21.8533 87.5713 21.256 88.1153 20.808C88.6593 20.3493 89.5233 20.12 90.7073 20.12H93.1393V19.816C93.1393 19.1547 92.9473 18.648 92.5633 18.296C92.1793 17.944 91.6139 17.768 90.8673 17.768C90.3659 17.768 89.8753 17.8533 89.3953 18.024C88.9153 18.184 88.5099 18.4027 88.1793 18.68L87.5393 17.528C87.9766 17.176 88.4993 16.9093 89.1073 16.728C89.7153 16.536 90.3606 16.44 91.0433 16.44ZM90.6913 23.912C91.2779 23.912 91.7846 23.784 92.2113 23.528C92.6379 23.2613 92.9473 22.888 93.1393 22.408V21.224H90.7713C89.4699 21.224 88.8193 21.6613 88.8193 22.536C88.8193 22.9627 88.9846 23.2987 89.3153 23.544C89.6459 23.7893 90.1046 23.912 90.6913 23.912ZM106.065 23.656V26.968H104.625V25H97.5371V26.968H96.0811V23.656H96.5291C97.0731 23.624 97.4465 23.24 97.6491 22.504C97.8518 21.768 97.9905 20.728 98.0651 19.384L98.1931 16.52H104.769V23.656H106.065ZM99.4731 19.496C99.4305 20.5627 99.3398 21.448 99.2011 22.152C99.0731 22.8453 98.8331 23.3467 98.4811 23.656H103.233V17.864H99.5531L99.4731 19.496Z" fill="#DA4533"/>
<path d="M0.646446 20.3536C0.451185 20.1583 0.451185 19.8417 0.646446 19.6464L3.82843 16.4645C4.02369 16.2692 4.34027 16.2692 4.53553 16.4645C4.7308 16.6597 4.7308 16.9763 4.53553 17.1716L1.70711 20L4.53553 22.8284C4.7308 23.0237 4.7308 23.3403 4.53553 23.5355C4.34027 23.7308 4.02369 23.7308 3.82843 23.5355L0.646446 20.3536ZM31 20.5L1 20.5L1 19.5L31 19.5L31 20.5Z" fill="#DA4533"/>
<path d="M148.5 20.5C148.5 23.0909 146.769 25.6569 143.404 28.0734C140.05 30.4813 135.166 32.6704 129.084 34.5173C116.928 38.2091 100.105 40.5 81.5 40.5C62.8955 40.5 46.0717 38.2091 33.9156 34.5173C27.8344 32.6704 22.9496 30.4813 19.5961 28.0734C16.2307 25.6569 14.5 23.0909 14.5 20.5C14.5 17.9091 16.2307 15.3431 19.5961 12.9266C22.9496 10.5187 27.8344 8.32962 33.9156 6.48273C46.0717 2.79087 62.8955 0.5 81.5 0.5C100.105 0.5 116.928 2.79087 129.084 6.48273C135.166 8.32962 140.05 10.5187 143.404 12.9266C146.769 15.3431 148.5 17.9091 148.5 20.5Z" stroke="#DA4533"/>
</svg>
