<svg width="136" height="50" viewBox="0 0 136 50" fill="none" xmlns="http://www.w3.org/2000/svg">
<path d="M0.646446 24.6464C0.451183 24.8417 0.451183 25.1583 0.646446 25.3536L3.82843 28.5355C4.02369 28.7308 4.34027 28.7308 4.53553 28.5355C4.7308 28.3403 4.7308 28.0237 4.53553 27.8284L1.70711 25L4.53553 22.1716C4.7308 21.9763 4.7308 21.6597 4.53553 21.4645C4.34027 21.2692 4.02369 21.2692 3.82843 21.4645L0.646446 24.6464ZM43 24.5L1 24.5V25.5L43 25.5V24.5Z" fill="#DA4533"/>
<path d="M18.5 25C18.5 14.2304 27.2304 5.5 38 5.5C48.7696 5.5 57.5 14.2304 57.5 25C57.5 35.7696 48.7696 44.5 38 44.5C27.2304 44.5 18.5 35.7695 18.5 25Z" stroke="#DA4533"/>
<path d="M135.354 24.6464C135.549 24.8417 135.549 25.1583 135.354 25.3536L132.172 28.5355C131.976 28.7308 131.66 28.7308 131.464 28.5355C131.269 28.3403 131.269 28.0237 131.464 27.8284L134.293 25L131.464 22.1716C131.269 21.9763 131.269 21.6597 131.464 21.4645C131.66 21.2692 131.976 21.2692 132.172 21.4645L135.354 24.6464ZM93 24.5L135 24.5V25.5L93 25.5V24.5Z" fill="#DA4533"/>
<path d="M117.5 25C117.5 14.2304 108.77 5.5 98 5.5C87.2304 5.5 78.5 14.2304 78.5 25C78.5 35.7696 87.2304 44.5 98 44.5C108.77 44.5 117.5 35.7695 117.5 25Z" stroke="#DA4533"/>
</svg>
