<svg width="154" height="41" viewBox="0 0 154 41" fill="none" xmlns="http://www.w3.org/2000/svg">
<path d="M33.0091 19.192C33.7664 19.3733 34.3371 19.6987 34.7211 20.168C35.1157 20.6267 35.3131 21.2187 35.3131 21.944C35.3131 22.9147 34.9557 23.6667 34.2411 24.2C33.5371 24.7333 32.5077 25 31.1531 25H26.0331V13.8H30.8491C32.0757 13.8 33.0304 14.0507 33.7131 14.552C34.4064 15.0427 34.7531 15.752 34.7531 16.68C34.7531 17.288 34.5984 17.8053 34.2891 18.232C33.9904 18.6587 33.5637 18.9787 33.0091 19.192ZM27.6171 18.728H30.7371C31.5157 18.728 32.1077 18.5733 32.5131 18.264C32.9291 17.9547 33.1371 17.5013 33.1371 16.904C33.1371 16.3067 32.9291 15.8533 32.5131 15.544C32.0971 15.224 31.5051 15.064 30.7371 15.064H27.6171V18.728ZM31.1211 23.736C32.8384 23.736 33.6971 23.096 33.6971 21.816C33.6971 21.176 33.4784 20.7067 33.0411 20.408C32.6144 20.0987 31.9744 19.944 31.1211 19.944H27.6171V23.736H31.1211ZM41.4262 25.096C40.5622 25.096 39.7889 24.9093 39.1062 24.536C38.4342 24.1627 37.9062 23.6507 37.5222 23C37.1382 22.3387 36.9462 21.592 36.9462 20.76C36.9462 19.928 37.1382 19.1867 37.5222 18.536C37.9062 17.8747 38.4342 17.3627 39.1062 17C39.7889 16.6267 40.5622 16.44 41.4262 16.44C42.1942 16.44 42.8769 16.5947 43.4742 16.904C44.0822 17.2133 44.5515 17.6613 44.8822 18.248L43.7142 19C43.4475 18.5947 43.1169 18.2907 42.7222 18.088C42.3275 17.8853 41.8902 17.784 41.4102 17.784C40.8555 17.784 40.3542 17.9067 39.9062 18.152C39.4689 18.3973 39.1222 18.7493 38.8662 19.208C38.6209 19.656 38.4982 20.1733 38.4982 20.76C38.4982 21.3573 38.6209 21.8853 38.8662 22.344C39.1222 22.792 39.4689 23.1387 39.9062 23.384C40.3542 23.6293 40.8555 23.752 41.4102 23.752C41.8902 23.752 42.3275 23.6507 42.7222 23.448C43.1169 23.2453 43.4475 22.9413 43.7142 22.536L44.8822 23.272C44.5515 23.8587 44.0822 24.312 43.4742 24.632C42.8769 24.9413 42.1942 25.096 41.4262 25.096ZM54.4098 20.808C54.4098 20.9253 54.3991 21.08 54.3778 21.272H47.4978C47.5938 22.0187 47.9191 22.6213 48.4738 23.08C49.0391 23.528 49.7378 23.752 50.5698 23.752C51.5831 23.752 52.3991 23.4107 53.0178 22.728L53.8658 23.72C53.4818 24.168 53.0018 24.5093 52.4258 24.744C51.8605 24.9787 51.2258 25.096 50.5218 25.096C49.6258 25.096 48.8311 24.9147 48.1378 24.552C47.4445 24.1787 46.9058 23.6613 46.5218 23C46.1485 22.3387 45.9618 21.592 45.9618 20.76C45.9618 19.9387 46.1431 19.1973 46.5058 18.536C46.8791 17.8747 47.3858 17.3627 48.0258 17C48.6765 16.6267 49.4071 16.44 50.2178 16.44C51.0285 16.44 51.7485 16.6267 52.3778 17C53.0178 17.3627 53.5138 17.8747 53.8658 18.536C54.2285 19.1973 54.4098 19.9547 54.4098 20.808ZM50.2178 17.736C49.4818 17.736 48.8631 17.96 48.3618 18.408C47.8711 18.856 47.5831 19.4427 47.4978 20.168H52.9378C52.8525 19.4533 52.5591 18.872 52.0578 18.424C51.5671 17.9653 50.9538 17.736 50.2178 17.736ZM68.6576 16.52L64.5456 25.848C64.1829 26.712 63.7562 27.32 63.2656 27.672C62.7856 28.024 62.2042 28.2 61.5216 28.2C61.1056 28.2 60.7002 28.1307 60.3056 27.992C59.9216 27.864 59.6016 27.672 59.3456 27.416L60.0016 26.264C60.4389 26.68 60.9456 26.888 61.5216 26.888C61.8949 26.888 62.2042 26.7867 62.4496 26.584C62.7056 26.392 62.9349 26.056 63.1376 25.576L63.4096 24.984L59.6656 16.52H61.2656L64.2256 23.304L67.1536 16.52H68.6576ZM73.6918 25.096C72.8278 25.096 72.0545 24.9093 71.3718 24.536C70.6998 24.1627 70.1718 23.6507 69.7878 23C69.4038 22.3387 69.2118 21.592 69.2118 20.76C69.2118 19.928 69.4038 19.1867 69.7878 18.536C70.1718 17.8747 70.6998 17.3627 71.3718 17C72.0545 16.6267 72.8278 16.44 73.6918 16.44C74.4598 16.44 75.1425 16.5947 75.7398 16.904C76.3478 17.2133 76.8171 17.6613 77.1478 18.248L75.9798 19C75.7131 18.5947 75.3825 18.2907 74.9878 18.088C74.5931 17.8853 74.1558 17.784 73.6758 17.784C73.1211 17.784 72.6198 17.9067 72.1718 18.152C71.7345 18.3973 71.3878 18.7493 71.1318 19.208C70.8865 19.656 70.7638 20.1733 70.7638 20.76C70.7638 21.3573 70.8865 21.8853 71.1318 22.344C71.3878 22.792 71.7345 23.1387 72.1718 23.384C72.6198 23.6293 73.1211 23.752 73.6758 23.752C74.1558 23.752 74.5931 23.6507 74.9878 23.448C75.3825 23.2453 75.7131 22.9413 75.9798 22.536L77.1478 23.272C76.8171 23.8587 76.3478 24.312 75.7398 24.632C75.1425 24.9413 74.4598 25.096 73.6918 25.096ZM86.1664 16.52V25H84.6304V17.864H80.9824L80.8864 19.752C80.8331 20.8933 80.7318 21.848 80.5824 22.616C80.4331 23.3733 80.1878 23.9813 79.8464 24.44C79.5051 24.8987 79.0304 25.128 78.4224 25.128C78.1451 25.128 77.8304 25.08 77.4784 24.984L77.5744 23.688C77.7131 23.72 77.8411 23.736 77.9584 23.736C78.3851 23.736 78.7051 23.5493 78.9184 23.176C79.1318 22.8027 79.2704 22.36 79.3344 21.848C79.3984 21.336 79.4571 20.6053 79.5104 19.656L79.6544 16.52H86.1664ZM96.7044 16.52L92.5924 25.848C92.2298 26.712 91.8031 27.32 91.3124 27.672C90.8324 28.024 90.2511 28.2 89.5684 28.2C89.1524 28.2 88.7471 28.1307 88.3524 27.992C87.9684 27.864 87.6484 27.672 87.3924 27.416L88.0484 26.264C88.4858 26.68 88.9924 26.888 89.5684 26.888C89.9418 26.888 90.2511 26.7867 90.4964 26.584C90.7524 26.392 90.9818 26.056 91.1844 25.576L91.4564 24.984L87.7124 16.52H89.3124L92.2724 23.304L95.2004 16.52H96.7044ZM104.517 17.864H99.8131V25H98.2771V16.52H104.517V17.864ZM106.09 16.52H107.626V22.696L112.826 16.52H114.218V25H112.682V18.824L107.498 25H106.09V16.52Z" fill="#DA4533"/>
<path d="M150.354 20.3536C150.549 20.1583 150.549 19.8417 150.354 19.6464L147.172 16.4645C146.976 16.2692 146.66 16.2692 146.464 16.4645C146.269 16.6597 146.269 16.9763 146.464 17.1716L149.293 20L146.464 22.8284C146.269 23.0237 146.269 23.3403 146.464 23.5355C146.66 23.7308 146.976 23.7308 147.172 23.5355L150.354 20.3536ZM120 20.5L150 20.5L150 19.5L120 19.5L120 20.5Z" fill="#DA4533"/>
<path d="M137.5 20.5C137.5 23.0909 135.769 25.6569 132.404 28.0734C129.05 30.4813 124.166 32.6704 118.084 34.5173C105.928 38.2091 89.1045 40.5 70.5 40.5C51.8955 40.5 35.0717 38.2091 22.9156 34.5173C16.8344 32.6704 11.9496 30.4813 8.59611 28.0734C5.23068 25.6569 3.5 23.0909 3.5 20.5C3.5 17.9091 5.23068 15.3431 8.59611 12.9266C11.9496 10.5187 16.8344 8.32962 22.9156 6.48273C35.0717 2.79087 51.8955 0.5 70.5 0.5C89.1045 0.5 105.928 2.79087 118.084 6.48273C124.166 8.32962 129.05 10.5187 132.404 12.9266C135.769 15.3431 137.5 17.9091 137.5 20.5Z" stroke="#DA4533"/>
</svg>
